<?xml version="1.0" standalone="no"?>
<!DOCTYPE svg PUBLIC "-//W3C//DTD SVG 20010904//EN"
 "http://www.w3.org/TR/2001/REC-SVG-20010904/DTD/svg10.dtd">
<svg version="1.0" xmlns="http://www.w3.org/2000/svg"
 width="200.000000pt" height="200.000000pt" viewBox="0 0 200.000000 200.000000"
 preserveAspectRatio="xMidYMid meet">
<metadata>
Created by potrace 1.11, written by Peter Selinger 2001-2013
</metadata>
<g transform="translate(0.000000,200.000000) scale(0.100000,-0.100000)"
fill="#000000" stroke="none">
<path d="M1304 1862 c21 -77 23 -169 4 -236 -17 -59 -83 -156 -128 -188 -21
-16 -40 -28 -43 -28 -2 0 -4 36 -4 80 0 45 -2 82 -4 84 -75 66 -123 106 -128
106 -3 0 -19 -12 -36 -26 -16 -14 -45 -39 -64 -55 -34 -28 -34 -28 -34 -113 0
-48 -3 -86 -7 -86 -4 0 -25 13 -46 29 -120 86 -173 224 -150 389 l8 52 -75
-34 c-235 -107 -393 -285 -439 -496 -61 -278 101 -570 397 -718 59 -29 121
-51 99 -35 -23 17 -47 79 -51 133 -10 121 84 234 235 280 35 11 65 20 66 20 0
0 1 -167 1 -370 0 -346 -1 -370 -17 -370 -13 0 -18 -9 -19 -32 -1 -18 -2 -52
-3 -75 0 -24 4 -44 9 -44 6 -1 65 -2 133 -3 l122 -2 1 26 c4 112 1 130 -19
130 -16 0 -17 23 -17 359 0 198 3 363 7 367 11 11 118 -35 167 -72 120 -91
147 -223 69 -336 -11 -16 -17 -28 -13 -28 25 0 225 112 279 156 217 179 301
443 217 684 -32 94 -113 214 -187 279 -64 55 -173 122 -257 158 -66 28 -78 30
-73 15z"/>
</g>
</svg>
